# xmcd
#
# Track frame offsets: 
#        150
#        33135
#        68590
#        81267
#        96467
#        114545
#        123387
#        126930
#
# Disc length: 1836 seconds
#
# Revision: 11
# Processed by: cddbd v1.5.2PL0 Copyright (c) Steve Scherf et al.
# Submitted via: ExactAudioCopy v1.0b3
#
DISCID=67072a08
DTITLE=Andreas Vollenweider - Behind the Gardens-Behind the Wall-Under
DTITLE=the Tree
DYEAR=1981
DGENRE=New Age
TTITLE0=Behind the Gardens - Behind the Wall - Under the Tree (Includi
TTITLE0=ng: Red - Dark Blue - Yellow)
TTITLE1=Pyramid - In the Wood - In the Bright Light
TTITLE2=Micro-Macro
TTITLE3=Skin and Skin
TTITLE4=Moonlight, Wrapped Around Us, Lion and Sheep
TTITLE5=Sunday
TTITLE6=Afternoon
TTITLE7=Hands and Clouds
EXTD=YEAR: 1981
EXTT0=
EXTT1=
EXTT2=
EXTT3=
EXTT4=
EXTT5=
EXTT6=
EXTT7=
PLAYORDER=
